<?xml version="1.0" encoding="utf-8"?>
<!-- Generator: Adobe Illustrator 16.0.3, SVG Export Plug-In . SVG Version: 6.00 Build 0)  -->
<!DOCTYPE svg PUBLIC "-//W3C//DTD SVG 1.1//EN" "http://www.w3.org/Graphics/SVG/1.1/DTD/svg11.dtd">
<svg version="1.1" id="Layer_1" xmlns="http://www.w3.org/2000/svg" xmlns:xlink="http://www.w3.org/1999/xlink" x="0px" y="0px"
	 width="1728px" height="576px" viewBox="0 0 1728 576" enable-background="new 0 0 1728 576" xml:space="preserve">
<g>
	<defs>
		<rect id="SVGID_1_" width="1728" height="576"/>
	</defs>
	<clipPath id="SVGID_2_">
		<use xlink:href="#SVGID_1_"  overflow="visible"/>
	</clipPath>
	<path clip-path="url(#SVGID_2_)" fill="#000B07" d="M310.37,464.014c-12.276,11.343-31.974,11.17-44.036-0.391
		c-12.019-11.563-11.843-30.111,0.443-41.453c12.264-11.334,31.982-11.161,44.017,0.416
		C322.859,434.148,322.645,452.696,310.37,464.014"/>
	<path clip-path="url(#SVGID_2_)" fill="#000B07" d="M373.303,450.646c-10.783,9.987-28.135,9.83-38.713-0.365
		c-10.55-10.152-10.429-26.495,0.37-36.456c10.788-9.96,28.143-9.805,38.73,0.366C384.284,424.36,384.12,440.684,373.303,450.646"/>
	<path clip-path="url(#SVGID_2_)" fill="#000B07" d="M424.309,416.119c-9.75,8.97-25.349,8.839-34.875-0.313
		c-9.503-9.17-9.395-23.86,0.333-32.837c9.71-8.979,25.346-8.806,34.834,0.33C434.145,392.469,433.999,407.149,424.309,416.119"/>
	<path clip-path="url(#SVGID_2_)" fill="#000B07" d="M458.921,364.759c-8.752,8.084-22.801,7.952-31.4-0.278
		c-8.548-8.24-8.437-21.479,0.331-29.562c8.752-8.058,22.8-7.918,31.346,0.304C467.79,343.463,467.644,356.684,458.921,364.759"/>
	<path clip-path="url(#SVGID_2_)" fill="#000B07" d="M421.89,189.284c-6.378,5.892-16.598,5.793-22.835-0.201
		c-6.268-6.007-6.15-15.628,0.203-21.535c6.387-5.872,16.62-5.801,22.854,0.202C428.385,173.767,428.274,183.407,421.89,189.284"/>
	<path clip-path="url(#SVGID_2_)" fill="#000B07" d="M368.428,152.221c-5.769,5.326-14.97,5.24-20.592-0.175
		c-5.622-5.407-5.528-14.055,0.203-19.388c5.729-5.284,14.945-5.206,20.574,0.199C374.223,138.277,374.168,146.917,368.428,152.221"
		/>
	<path clip-path="url(#SVGID_2_)" fill="#5E9114" d="M270.367,110.24c12.286-11.341,32.018-11.163,44.046,0.389
		c12.027,11.549,11.833,30.14-0.435,41.463c-12.303,11.333-31.999,11.154-44.036-0.408
		C257.906,140.116,258.1,121.572,270.367,110.24"/>
	<path clip-path="url(#SVGID_2_)" fill="#5E9114" d="M207.426,123.619c10.808-9.984,28.143-9.83,38.739,0.354
		c10.558,10.159,10.393,26.508-0.398,36.466c-10.789,9.96-28.142,9.8-38.683-0.362C196.479,149.897,196.637,133.584,207.426,123.619
		"/>
	<path clip-path="url(#SVGID_2_)" fill="#5E9114" d="M156.466,158.157c9.72-8.979,25.329-8.853,34.853,0.303
		c9.525,9.17,9.379,23.843-0.332,32.835c-9.729,8.979-25.345,8.813-34.853-0.339C146.59,181.807,146.757,167.104,156.466,158.157"/>
	<path clip-path="url(#SVGID_2_)" fill="#5E9114" d="M121.834,209.496c8.76-8.063,22.8-7.932,31.365,0.318
		c8.583,8.204,8.454,21.46-0.314,29.534c-8.705,8.041-22.771,7.929-31.346-0.303C112.955,230.788,113.104,217.58,121.834,209.496"/>
	<path clip-path="url(#SVGID_2_)" fill="#5E9114" d="M111.202,271.943c7.872-7.241,20.491-7.135,28.206,0.266
		c7.716,7.423,7.588,19.319-0.249,26.585c-7.891,7.267-20.538,7.145-28.254-0.263C103.179,291.11,103.319,279.216,111.202,271.943"
		/>
	<path clip-path="url(#SVGID_2_)" fill="#5E9114" d="M124.751,333.336c7.088-6.563,18.451-6.449,25.421,0.243
		c6.958,6.65,6.83,17.358-0.241,23.912c-7.108,6.521-18.468,6.433-25.41-0.242C117.561,350.573,117.69,339.856,124.751,333.336"/>
	<path clip-path="url(#SVGID_2_)" fill="#5E9114" d="M158.83,384.985c6.387-5.903,16.623-5.798,22.889,0.189
		c6.223,6.016,6.159,15.638-0.239,21.54c-6.379,5.894-16.606,5.788-22.854-0.208C152.368,400.491,152.46,390.86,158.83,384.985"/>
	<path clip-path="url(#SVGID_2_)" fill="#5E9114" d="M212.328,422.04c5.759-5.303,14.951-5.225,20.592,0.181
		c5.602,5.381,5.528,14.055-0.213,19.383c-5.722,5.296-14.954,5.199-20.565-0.198C206.512,435.981,206.624,427.351,212.328,422.04"
		/>
	<path clip-path="url(#SVGID_2_)" fill="#000B07" d="M210.426,378.292c-11.436-0.226-20.501-9.118-20.27-19.888
		c0.258-10.743,9.711-19.296,21.119-19.079c11.447,0.243,20.491,9.145,20.27,19.906
		C231.305,369.982,221.834,378.527,210.426,378.292"/>
	<path clip-path="url(#SVGID_2_)" fill="#000B07" d="M246.441,400.24c-10.079-0.193-18.036-8.041-17.833-17.508
		c0.204-9.43,8.512-16.975,18.581-16.757c10.034,0.19,17.999,8.031,17.805,17.505C264.8,392.939,256.485,400.439,246.441,400.24"/>
	<path clip-path="url(#SVGID_2_)" fill="#000B07" d="M287.535,407.003c-9.046-0.209-16.244-7.224-16.042-15.742
		c0.202-8.529,7.67-15.315,16.735-15.098c9.018,0.173,16.216,7.24,16.013,15.741C304.068,400.403,296.581,407.176,287.535,407.003"
		/>
	<path clip-path="url(#SVGID_2_)" fill="#000B07" d="M329.523,398.598c-8.113-0.14-14.593-6.494-14.427-14.151
		c0.175-7.667,6.904-13.761,15.064-13.585c8.132,0.137,14.592,6.519,14.425,14.158C344.427,392.695,337.673,398.763,329.523,398.598
		"/>
	<path clip-path="url(#SVGID_2_)" fill="#000B07" d="M366.012,374.363c-7.33-0.149-13.147-5.858-13.019-12.742
		c0.169-6.91,6.213-12.395,13.553-12.265c7.309,0.183,13.144,5.885,12.997,12.761C379.393,369.034,373.303,374.529,366.012,374.363"
		/>
	<path clip-path="url(#SVGID_2_)" fill="#5E9114" d="M334.331,174.027c10.063,0.222,18.038,8.042,17.813,17.507
		c-0.219,9.427-8.526,16.976-18.588,16.771c-10.024-0.2-17.998-8.031-17.795-17.489
		C315.964,181.347,324.291,173.845,334.331,174.027"/>
	<path clip-path="url(#SVGID_2_)" fill="#5E9114" d="M293.203,167.275c9.074,0.177,16.226,7.21,16.06,15.732
		c-0.185,8.527-7.681,15.303-16.724,15.128c-9.046-0.19-16.227-7.248-16.024-15.77C276.716,173.849,284.175,167.105,293.203,167.275
		"/>
	<path clip-path="url(#SVGID_2_)" fill="#5E9114" d="M251.204,175.67c8.179,0.148,14.62,6.481,14.447,14.138
		c-0.158,7.693-6.898,13.764-15.047,13.6c-8.15-0.154-14.592-6.516-14.408-14.165C236.325,181.585,243.1,175.5,251.204,175.67"/>
	<path clip-path="url(#SVGID_2_)" fill="#5E9114" d="M214.746,199.909c7.339,0.134,13.144,5.84,12.995,12.738
		c-0.146,6.909-6.211,12.381-13.512,12.261c-7.346-0.144-13.18-5.895-13.014-12.756C201.36,205.245,207.427,199.784,214.746,199.909
		"/>
	<path clip-path="url(#SVGID_2_)" fill="#5E9114" d="M190.091,234.525c6.6,0.118,11.843,5.238,11.694,11.457
		c-0.119,6.204-5.574,11.134-12.201,11.013c-6.554-0.123-11.797-5.276-11.668-11.487
		C178.045,239.315,183.51,234.369,190.091,234.525"/>
	<path clip-path="url(#SVGID_2_)" fill="#5E9114" d="M179.874,273.765c5.926,0.101,10.652,4.755,10.541,10.332
		c-0.119,5.587-5.049,10.002-10.984,9.89c-5.934-0.121-10.632-4.746-10.522-10.338C169.039,278.063,173.947,273.653,179.874,273.765
		"/>
	<path clip-path="url(#SVGID_2_)" fill="#5E9114" d="M186.058,314.928c5.336,0.11,9.562,4.258,9.453,9.292
		c-0.113,5.005-4.505,8.994-9.878,8.899c-5.316-0.096-9.561-4.285-9.451-9.291C176.273,318.786,180.696,314.822,186.058,314.928"/>
	<path clip-path="url(#SVGID_2_)" fill="#5E9114" d="M290.322,302.219c0,10.874-2.639,18.949-7.863,24.199
		c-5.263,5.241-13.348,7.876-24.295,7.876c-6.812,0-13.273-1.436-19.364-4.305v-7.448c6.783,3.564,13.244,5.32,19.364,5.32
		c16.255,0,24.386-8.057,24.386-24.269v-7.042h-0.258c-4.772,7.72-12.082,11.588-21.893,11.588c-3.85,0-7.366-0.687-10.534-2.016
		c-3.182-1.349-5.935-3.27-8.194-5.799c-2.291-2.538-4.034-5.589-5.309-9.17c-1.255-3.625-1.873-7.716-1.873-12.23
		c0-4.836,0.673-9.21,2.012-13.146c1.339-3.95,3.267-7.355,5.723-10.165c2.474-2.854,5.436-5.029,8.961-6.581
		c3.509-1.533,7.459-2.311,11.834-2.311c8.805,0,15.211,3.35,19.273,10.077h0.258v-8.694h7.772V302.219z M282.55,271.119
		c0-2.447-0.461-4.747-1.402-6.928c-0.961-2.181-2.235-4.081-3.896-5.736c-1.671-1.631-3.636-2.941-5.946-3.908
		c-2.287-0.977-4.799-1.465-7.548-1.465c-3.229,0-6.185,0.593-8.824,1.76c-2.595,1.2-4.818,2.869-6.684,5.055
		c-1.825,2.164-3.249,4.821-4.235,7.92c-1.017,3.119-1.487,6.636-1.487,10.521c0,3.594,0.461,6.846,1.385,9.739
		c0.942,2.895,2.252,5.345,3.941,7.379c1.726,2.026,3.757,3.608,6.184,4.704c2.418,1.104,5.104,1.659,8.076,1.659
		c3.074,0,5.871-0.538,8.381-1.556c2.511-1.068,4.672-2.514,6.443-4.398c1.791-1.824,3.175-4.006,4.145-6.511
		c0.95-2.481,1.467-5.21,1.467-8.088V271.119z"/>
	<path clip-path="url(#SVGID_2_)" fill="#5E9114" d="M333.389,308.139c-4.614,0-8.767-0.749-12.441-2.199
		c-3.656-1.434-6.802-3.494-9.396-6.163c-2.584-2.65-4.579-5.813-5.963-9.535c-1.367-3.695-2.068-7.806-2.068-12.299
		c0-4.894,0.719-9.27,2.198-13.117c1.439-3.868,3.543-7.132,6.239-9.826c2.695-2.682,5.944-4.75,9.746-6.157
		c3.84-1.41,8.077-2.122,12.794-2.122c4.495,0,8.53,0.712,12.148,2.09c3.616,1.403,6.682,3.411,9.193,6.032
		c2.511,2.648,4.455,5.846,5.768,9.638c1.356,3.771,2.012,8.074,2.012,12.896c0,4.556-0.691,8.749-2.085,12.5
		c-1.397,3.774-3.407,6.99-6.002,9.701c-2.591,2.711-5.747,4.823-9.499,6.301C342.308,307.39,338.115,308.139,333.389,308.139
		 M333.99,253.082c-3.405,0-6.479,0.549-9.248,1.652c-2.743,1.125-5.124,2.716-7.062,4.833c-1.983,2.13-3.489,4.723-4.53,7.823
		c-1.074,3.029-1.598,6.544-1.598,10.413c0,3.677,0.524,6.987,1.598,9.926c1.041,2.938,2.535,5.478,4.457,7.554
		c1.91,2.121,4.283,3.719,7.032,4.85c2.733,1.122,5.835,1.687,9.23,1.687c3.5,0,6.581-0.538,9.259-1.651
		c2.669-1.078,4.927-2.66,6.821-4.747c1.864-2.067,3.229-4.614,4.211-7.64c0.967-3.012,1.421-6.452,1.421-10.3
		c0-7.919-1.846-13.969-5.594-18.139C346.258,255.174,340.932,253.082,333.99,253.082"/>
	<path clip-path="url(#SVGID_2_)" fill="#000B07" d="M380.65,233.264c-1.516,0-2.808-0.485-3.898-1.497
		c-1.106-0.987-1.64-2.24-1.64-3.8c0-1.474,0.534-2.712,1.64-3.686c1.09-0.961,2.382-1.434,3.898-1.434
		c0.774,0,1.505,0.1,2.179,0.369c0.719,0.236,1.291,0.61,1.825,1.039c0.5,0.46,0.905,1,1.202,1.648
		c0.294,0.634,0.444,1.312,0.444,2.064c0,0.746-0.15,1.442-0.436,2.094c-0.287,0.623-0.692,1.213-1.21,1.674
		c-0.516,0.498-1.106,0.842-1.798,1.121C382.218,233.118,381.452,233.264,380.65,233.264 M376.801,248.104h7.797v58.635h-7.797
		V248.104z"/>
	<path clip-path="url(#SVGID_2_)" fill="#000B07" d="M444.208,306.738v-33.794c0-13.238-5.105-19.862-15.333-19.862
		c-2.722,0-5.241,0.499-7.549,1.521c-2.318,1.01-4.291,2.407-5.964,4.186c-1.696,1.817-3.015,3.914-3.958,6.41
		c-0.967,2.456-1.441,5.111-1.441,7.978v33.561h-7.79v-58.635h7.79v10.198h0.242c4.641-7.717,11.572-11.581,20.861-11.581
		c6.808,0,11.998,2.09,15.56,6.242c3.583,4.153,5.372,10.168,5.372,18.044v35.732H444.208z"/>
	<path clip-path="url(#SVGID_2_)" fill="#000B07" d="M510.257,306.738v-33.794c0-13.238-5.119-19.862-15.338-19.862
		c-2.696,0-5.215,0.499-7.534,1.521c-2.307,1.01-4.308,2.407-6.001,4.186c-1.663,1.817-2.987,3.914-3.96,6.41
		c-0.928,2.456-1.432,5.111-1.432,7.978v33.561h-7.759v-58.635h7.759v10.198h0.258c4.621-7.717,11.579-11.581,20.861-11.581
		c6.817,0,12.022,2.09,15.585,6.242c3.557,4.153,5.356,10.168,5.356,18.044v35.732H510.257z"/>
	<path clip-path="url(#SVGID_2_)" fill="#000B07" d="M559.77,308.139c-4.616,0-8.763-0.749-12.421-2.199
		c-3.689-1.434-6.818-3.494-9.408-6.163c-2.605-2.65-4.58-5.813-5.971-9.535c-1.355-3.695-2.066-7.806-2.066-12.299
		c0-4.894,0.736-9.27,2.207-13.117c1.442-3.868,3.533-7.132,6.218-9.826c2.707-2.682,5.951-4.75,9.75-6.157
		c3.81-1.41,8.088-2.122,12.794-2.122c4.495,0,8.552,0.712,12.154,2.09c3.618,1.403,6.656,3.411,9.191,6.032
		c2.51,2.648,4.439,5.846,5.769,9.638c1.32,3.771,2.012,8.074,2.012,12.896c0,4.556-0.692,8.749-2.097,12.5
		c-1.411,3.774-3.392,6.99-5.977,9.701c-2.605,2.711-5.769,4.823-9.498,6.301C568.683,307.39,564.456,308.139,559.77,308.139
		 M560.359,253.082c-3.396,0-6.459,0.549-9.226,1.652c-2.766,1.125-5.119,2.716-7.08,4.833c-1.949,2.13-3.481,4.723-4.534,7.823
		c-1.054,3.029-1.578,6.544-1.578,10.413c0,3.677,0.524,6.987,1.578,9.926c1.053,2.938,2.554,5.478,4.469,7.554
		c1.93,2.121,4.283,3.719,7.019,4.85c2.771,1.122,5.845,1.687,9.251,1.687c3.503,0,6.561-0.538,9.257-1.651
		c2.661-1.078,4.928-2.66,6.787-4.747c1.869-2.067,3.281-4.614,4.233-7.64c0.942-3.012,1.431-6.452,1.431-10.3
		c0-7.919-1.869-13.969-5.578-18.139C572.63,255.174,567.323,253.082,560.359,253.082"/>
	<path clip-path="url(#SVGID_2_)" fill="#000B07" d="M625.376,306.738h-7.422l-23.824-58.635h8.586l17.198,44.668
		c1.073,2.712,1.713,5.092,2.016,7.154h0.241c0.475-2.747,1.139-5.043,1.895-6.938l17.823-44.884h8.314L625.376,306.738z"/>
	<path clip-path="url(#SVGID_2_)" fill="#000B07" d="M662.558,233.264c-1.491,0-2.802-0.485-3.895-1.497
		c-1.109-0.987-1.642-2.24-1.642-3.8c0-1.474,0.533-2.712,1.642-3.686c1.093-0.961,2.404-1.434,3.895-1.434
		c0.776,0,1.502,0.1,2.187,0.369c0.7,0.236,1.29,0.61,1.804,1.039c0.493,0.46,0.892,1,1.22,1.648
		c0.286,0.634,0.443,1.312,0.443,2.064c0,0.746-0.157,1.442-0.429,2.094c-0.277,0.623-0.705,1.213-1.224,1.674
		c-0.524,0.498-1.103,0.842-1.784,1.121C664.125,233.118,663.369,233.264,662.558,233.264 M658.718,248.104h7.785v58.635h-7.785
		V248.104z"/>
	<path clip-path="url(#SVGID_2_)" fill="#000B07" d="M709.576,308.139c-4.625,0-8.767-0.749-12.441-2.199
		c-3.673-1.434-6.812-3.494-9.397-6.163c-2.585-2.65-4.576-5.813-5.972-9.535c-1.37-3.695-2.061-7.806-2.061-12.299
		c0-4.894,0.731-9.27,2.198-13.117c1.476-3.868,3.527-7.132,6.222-9.826c2.712-2.682,5.962-4.75,9.771-6.157
		c3.815-1.41,8.062-2.122,12.769-2.122c4.505,0,8.571,0.712,12.174,2.09c3.608,1.403,6.656,3.411,9.165,6.032
		c2.53,2.648,4.465,5.846,5.8,9.638c1.32,3.771,1.981,8.074,1.981,12.896c0,4.556-0.691,8.749-2.092,12.5
		c-1.401,3.774-3.381,6.99-5.98,9.701c-2.606,2.711-5.761,4.823-9.49,6.301C718.495,307.39,714.271,308.139,709.576,308.139
		 M710.181,253.082c-3.412,0-6.495,0.549-9.246,1.652c-2.752,1.125-5.12,2.716-7.081,4.833c-1.984,2.13-3.476,4.723-4.534,7.823
		c-1.068,3.029-1.582,6.544-1.582,10.413c0,3.677,0.514,6.987,1.582,9.926c1.058,2.938,2.535,5.478,4.459,7.554
		c1.941,2.121,4.278,3.719,7.03,4.85c2.761,1.122,5.86,1.687,9.246,1.687c3.492,0,6.576-0.538,9.246-1.651
		c2.661-1.078,4.954-2.66,6.818-4.747c1.874-2.067,3.26-4.614,4.218-7.64c0.962-3.012,1.426-6.452,1.426-10.3
		c0-7.919-1.85-13.969-5.589-18.139C722.461,255.174,717.109,253.082,710.181,253.082"/>
	<path clip-path="url(#SVGID_2_)" fill="#000B07" d="M783.895,255.613c-1.829-1.283-4.167-1.909-7.055-1.909
		c-2.065,0-3.879,0.356-5.466,1.122c-1.593,0.761-2.969,1.755-4.163,2.999c-1.219,1.286-2.232,2.72-3.028,4.397
		c-0.847,1.665-1.517,3.374-2.036,5.168c-0.494,1.808-0.866,3.617-1.088,5.464c-0.217,1.798-0.323,3.536-0.323,5.192v28.692h-7.749
		v-58.634h7.749v12.54h0.197c0.756-2.159,1.678-4.063,2.806-5.776c1.094-1.677,2.389-3.123,3.881-4.284
		c1.436-1.17,3.023-2.046,4.761-2.656c1.719-0.621,3.543-0.926,5.427-0.926c1.255,0,2.379,0.084,3.366,0.222
		c1.023,0.165,1.914,0.401,2.721,0.704V255.613z"/>
	<path clip-path="url(#SVGID_2_)" fill="#000B07" d="M486.282,346.834c-1.033,0.488-2.202,0.759-3.466,0.759
		c-3.981,0-5.977-2.183-5.977-6.511v-14.664h-4.328v-2.54h4.328v-5.864l3.089-0.932v6.796h6.354v2.54h-6.354v14.229
		c0,1.59,0.272,2.702,0.827,3.389c0.559,0.696,1.466,1.035,2.776,1.035c0.957,0,1.889-0.261,2.751-0.791V346.834z"/>
	<path clip-path="url(#SVGID_2_)" fill="#000B07" d="M498.371,336.031c0.02,1.392,0.236,2.687,0.62,3.816
		c0.377,1.138,0.937,2.104,1.647,2.878c0.741,0.8,1.628,1.371,2.641,1.806c1.058,0.417,2.207,0.609,3.507,0.609
		c2.781,0,5.391-0.903,7.875-2.739v2.877c-2.353,1.574-5.195,2.383-8.581,2.383c-1.647,0-3.15-0.27-4.52-0.827
		c-1.33-0.544-2.48-1.318-3.401-2.372c-0.978-1.025-1.708-2.303-2.192-3.815c-0.529-1.503-0.791-3.25-0.791-5.18
		c0-1.748,0.267-3.348,0.846-4.842c0.56-1.479,1.336-2.764,2.328-3.826c0.998-1.085,2.172-1.937,3.553-2.552
		c1.34-0.583,2.841-0.905,4.469-0.905c1.603,0,3.018,0.269,4.218,0.773c1.239,0.521,2.252,1.286,3.074,2.231
		c0.826,0.967,1.441,2.149,1.914,3.549c0.393,1.391,0.62,2.954,0.62,4.666v1.47H498.371z M513.034,333.477
		c-0.056-2.417-0.68-4.295-1.839-5.633c-1.174-1.321-2.782-1.981-4.903-1.981c-1.039,0-2.016,0.146-2.903,0.512
		c-0.887,0.348-1.658,0.852-2.342,1.487c-0.671,0.687-1.215,1.494-1.679,2.425c-0.418,0.946-0.74,2.018-0.922,3.19H513.034z"/>
	<path clip-path="url(#SVGID_2_)" fill="#000B07" d="M544.578,346.069c-1.824,1.035-4.046,1.583-6.647,1.592
		c-1.773,0.034-3.355-0.27-4.787-0.836c-1.4-0.616-2.605-1.415-3.618-2.485c-0.992-1.025-1.738-2.269-2.262-3.71
		c-0.539-1.419-0.796-2.983-0.796-4.67c0-1.729,0.277-3.353,0.852-4.9c0.544-1.53,1.36-2.887,2.433-4.024
		c1.078-1.131,2.399-2.051,3.95-2.722c1.568-0.65,3.342-0.972,5.332-0.972c2.071,0,3.935,0.363,5.618,1.11v3.087
		c-1.804-1.121-3.764-1.677-5.835-1.677c-1.456,0-2.771,0.251-3.92,0.773c-1.118,0.521-2.091,1.226-2.872,2.137
		c-0.776,0.904-1.35,1.956-1.774,3.155c-0.383,1.191-0.61,2.478-0.61,3.834c0,1.218,0.172,2.408,0.519,3.536
		c0.348,1.157,0.872,2.131,1.583,3c0.72,0.88,1.618,1.564,2.73,2.088c1.079,0.52,2.354,0.755,3.83,0.755
		c2.323,0,4.43-0.627,6.274-1.931V346.069z"/>
	<path clip-path="url(#SVGID_2_)" fill="#000B07" d="M573.062,347.104v-13.671c0-2.583-0.509-4.504-1.496-5.738
		c-0.998-1.226-2.55-1.833-4.636-1.833c-1.013,0-1.955,0.146-2.878,0.556c-0.866,0.381-1.662,0.93-2.347,1.625
		c-0.661,0.729-1.215,1.583-1.582,2.635c-0.429,0.98-0.625,2.154-0.625,3.423v13.004h-3.069V312.71h3.069v15.193h0.1
		c1.925-3.041,4.677-4.562,8.274-4.562c2.752,0,4.817,0.773,6.203,2.39c1.376,1.573,2.081,3.919,2.081,6.997v14.376H573.062z"/>
	<path clip-path="url(#SVGID_2_)" fill="#000B07" d="M606.143,347.104v-13.386c0-5.232-2.03-7.856-6.097-7.856
		c-1.069,0-2.081,0.208-2.968,0.581c-0.907,0.418-1.718,0.966-2.378,1.67c-0.666,0.721-1.194,1.563-1.573,2.564
		c-0.373,0.964-0.554,1.99-0.554,3.129v13.298h-3.084v-23.227h3.084v4.025h0.071c1.854-3.041,4.605-4.562,8.254-4.562
		c2.721,0,4.766,0.816,6.187,2.451c1.401,1.668,2.126,4.051,2.126,7.162v14.149H606.143z"/>
	<path clip-path="url(#SVGID_2_)" fill="#000B07" d="M632.657,347.661c-1.834,0-3.492-0.287-4.954-0.878
		c-1.46-0.574-2.675-1.373-3.703-2.441c-1.033-1.027-1.829-2.305-2.373-3.747c-0.549-1.486-0.837-3.12-0.837-4.911
		c0-1.929,0.318-3.651,0.877-5.181c0.61-1.512,1.407-2.816,2.479-3.885c1.063-1.078,2.354-1.896,3.85-2.425
		c1.537-0.574,3.215-0.852,5.069-0.852c1.789,0,3.412,0.277,4.847,0.816c1.407,0.564,2.621,1.355,3.619,2.399
		c0.987,1.051,1.753,2.312,2.272,3.797c0.549,1.505,0.796,3.225,0.796,5.112c0,1.808-0.251,3.468-0.806,4.936
		c-0.584,1.514-1.361,2.808-2.394,3.878c-1.023,1.06-2.282,1.902-3.743,2.494C636.159,347.374,634.506,347.661,632.657,347.661
		 M632.869,325.862c-1.326,0-2.56,0.208-3.648,0.634c-1.069,0.443-2.016,1.096-2.812,1.93c-0.781,0.825-1.366,1.86-1.809,3.094
		c-0.403,1.209-0.6,2.581-0.6,4.128c0,1.445,0.197,2.756,0.6,3.93c0.443,1.184,1.028,2.157,1.784,2.972
		c0.746,0.837,1.708,1.487,2.781,1.913c1.089,0.486,2.323,0.679,3.678,0.679c1.397,0,2.601-0.192,3.659-0.627
		c1.063-0.443,1.965-1.06,2.696-1.886c0.725-0.834,1.299-1.852,1.668-3.042c0.372-1.183,0.574-2.537,0.574-4.075
		c0-3.131-0.761-5.521-2.232-7.164C637.726,326.687,635.625,325.862,632.869,325.862"/>
	<rect x="656.763" y="312.71" clip-path="url(#SVGID_2_)" fill="#000B07" width="3.059" height="34.396"/>
	<path clip-path="url(#SVGID_2_)" fill="#000B07" d="M683.782,347.661c-1.814,0-3.481-0.287-4.923-0.878
		c-1.436-0.574-2.68-1.373-3.724-2.441c-1.022-1.027-1.808-2.305-2.358-3.747c-0.529-1.486-0.826-3.12-0.826-4.911
		c0-1.929,0.307-3.651,0.881-5.181c0.561-1.512,1.407-2.816,2.465-3.885c1.068-1.078,2.363-1.896,3.88-2.425
		c1.507-0.574,3.17-0.852,5.034-0.852c1.793,0,3.386,0.277,4.837,0.816c1.431,0.564,2.64,1.355,3.638,2.399
		c0.993,1.051,1.753,2.312,2.288,3.797c0.514,1.505,0.795,3.225,0.795,5.112c0,1.808-0.281,3.468-0.861,4.936
		c-0.539,1.514-1.32,2.808-2.353,3.878c-1.033,1.06-2.293,1.902-3.749,2.494C687.325,347.374,685.637,347.661,683.782,347.661
		 M684.019,325.862c-1.32,0-2.544,0.208-3.627,0.634c-1.104,0.443-2.037,1.096-2.823,1.93c-0.791,0.825-1.37,1.86-1.794,3.094
		c-0.408,1.209-0.64,2.581-0.64,4.128c0,1.445,0.232,2.756,0.64,3.93c0.424,1.184,1.003,2.157,1.774,2.972
		c0.751,0.837,1.694,1.487,2.777,1.913c1.078,0.486,2.297,0.679,3.672,0.679c1.366,0,2.591-0.192,3.649-0.627
		c1.059-0.443,1.955-1.06,2.716-1.886c0.72-0.834,1.27-1.852,1.648-3.042c0.393-1.183,0.564-2.537,0.564-4.075
		c0-3.131-0.741-5.521-2.197-7.164C688.882,326.687,686.794,325.862,684.019,325.862"/>
	<path clip-path="url(#SVGID_2_)" fill="#000B07" d="M728.285,345.322c0,4.296-1.032,7.503-3.144,9.57
		c-2.061,2.095-5.266,3.131-9.584,3.131c-2.717,0-5.266-0.574-7.679-1.723v-2.938c2.675,1.408,5.2,2.104,7.679,2.104
		c6.405,0,9.634-3.199,9.634-9.621v-2.772h-0.09c-1.92,3.022-4.808,4.588-8.667,4.588c-1.547,0-2.943-0.27-4.183-0.81
		c-1.265-0.529-2.343-1.302-3.255-2.276c-0.897-0.989-1.582-2.216-2.076-3.659c-0.519-1.425-0.776-3.024-0.776-4.815
		c0-1.911,0.293-3.669,0.816-5.224c0.524-1.564,1.285-2.903,2.263-4.016c0.972-1.13,2.182-1.999,3.557-2.615
		c1.391-0.583,2.938-0.904,4.677-0.904c3.471,0,6.056,1.313,7.644,4.006h0.09v-3.47h3.094V345.322z M725.191,332.998
		c0-0.966-0.182-1.87-0.559-2.729c-0.363-0.896-0.897-1.616-1.542-2.295c-0.665-0.626-1.421-1.166-2.349-1.547
		c-0.906-0.374-1.899-0.564-2.987-0.564c-1.275,0-2.439,0.243-3.482,0.695c-1.023,0.478-1.925,1.128-2.646,1.99
		c-0.741,0.869-1.31,1.911-1.687,3.154c-0.394,1.208-0.6,2.6-0.6,4.147c0,1.425,0.181,2.728,0.549,3.858
		c0.373,1.146,0.886,2.112,1.572,2.92s1.502,1.442,2.439,1.886c0.962,0.435,2.025,0.627,3.189,0.627c1.23,0,2.329-0.192,3.326-0.609
		c1.003-0.435,1.844-0.999,2.575-1.738c0.69-0.713,1.245-1.583,1.613-2.572c0.397-0.965,0.589-2.051,0.589-3.207V332.998z"/>
	<path clip-path="url(#SVGID_2_)" fill="#000B07" d="M749.282,351.311c-0.942,2.271-2.071,3.957-3.32,5.078
		c-1.23,1.077-2.787,1.635-4.561,1.635c-0.866,0-1.617-0.104-2.206-0.316v-2.71c0.332,0.122,0.679,0.2,1.058,0.271
		c0.337,0.06,0.715,0.111,1.063,0.111c1.048,0,1.934-0.321,2.665-0.911c0.751-0.618,1.371-1.514,1.925-2.722l2.171-4.745
		l-9.517-23.123h3.446l7.049,18.403c0.096,0.242,0.172,0.512,0.283,0.808c0.07,0.297,0.171,0.626,0.242,0.93h0.116
		c0.086-0.252,0.181-0.529,0.231-0.8c0.096-0.262,0.166-0.547,0.287-0.859l7.508-18.481h3.266L749.282,351.311z"/>
	
		<line clip-path="url(#SVGID_2_)" fill="none" stroke="#5E9114" stroke-width="5" stroke-miterlimit="10" x1="866.52" y1="422.759" x2="866.52" y2="151.496"/>
	<path clip-path="url(#SVGID_2_)" d="M1061.396,302.609l3.356,12.901c0.734,2.832,1.416,5.454,1.888,8.077h0.157
		c0.577-2.571,1.416-5.298,2.256-8.025l4.143-12.953h3.881l3.934,12.691c0.944,3.042,1.678,5.716,2.255,8.287h0.157
		c0.42-2.571,1.102-5.245,1.94-8.234l3.619-12.744h4.562l-8.181,25.383h-4.196l-3.88-12.113c-0.892-2.832-1.626-5.351-2.255-8.34
		h-0.105c-0.629,3.042-1.416,5.664-2.308,8.391l-4.09,12.063h-4.196l-7.656-25.383H1061.396z"/>
	<path clip-path="url(#SVGID_2_)" d="M1100.622,302.609l3.356,12.901c0.734,2.832,1.416,5.454,1.888,8.077h0.157
		c0.577-2.571,1.416-5.298,2.256-8.025l4.143-12.953h3.881l3.934,12.691c0.944,3.042,1.678,5.716,2.255,8.287h0.157
		c0.42-2.571,1.102-5.245,1.94-8.234l3.619-12.744h4.562l-8.181,25.383h-4.196l-3.88-12.113c-0.892-2.832-1.626-5.351-2.255-8.34
		h-0.105c-0.629,3.042-1.416,5.664-2.308,8.391l-4.09,12.063h-4.196l-7.656-25.383H1100.622z"/>
	<path clip-path="url(#SVGID_2_)" d="M1139.849,302.609l3.356,12.901c0.734,2.832,1.416,5.454,1.888,8.077h0.157
		c0.577-2.571,1.416-5.298,2.256-8.025l4.143-12.953h3.881l3.934,12.691c0.944,3.042,1.678,5.716,2.255,8.287h0.157
		c0.42-2.571,1.102-5.245,1.94-8.234l3.619-12.744h4.562l-8.181,25.383h-4.196l-3.88-12.113c-0.892-2.832-1.626-5.351-2.255-8.34
		h-0.105c-0.629,3.042-1.416,5.664-2.308,8.391l-4.09,12.063h-4.196l-7.656-25.383H1139.849z"/>
	<path clip-path="url(#SVGID_2_)" d="M1173.466,325.265c0-1.94,1.311-3.304,3.146-3.304c1.836,0,3.095,1.363,3.095,3.304
		c0,1.889-1.206,3.305-3.146,3.305C1174.724,328.569,1173.466,327.153,1173.466,325.265"/>
	<path clip-path="url(#SVGID_2_)" d="M1207.289,302.609c-0.104,1.835-0.21,3.881-0.21,6.975v14.737c0,5.821-1.153,9.388-3.618,11.59
		c-2.465,2.308-6.031,3.042-9.23,3.042c-3.041,0-6.398-0.734-8.443-2.098l1.154-3.514c1.678,1.049,4.3,1.992,7.447,1.992
		c4.72,0,8.181-2.465,8.181-8.862v-2.832h-0.104c-1.416,2.359-4.144,4.248-8.076,4.248c-6.294,0-10.805-5.35-10.805-12.377
		c0-8.602,5.612-13.479,11.434-13.479c4.405,0,6.816,2.308,7.919,4.406h0.104l0.209-3.829H1207.289z M1202.518,312.626
		c0-0.787-0.053-1.469-0.263-2.098c-0.839-2.674-3.094-4.878-6.45-4.878c-4.406,0-7.553,3.724-7.553,9.598
		c0,4.982,2.518,9.125,7.5,9.125c2.832,0,5.401-1.782,6.398-4.72c0.262-0.786,0.367-1.678,0.367-2.465V312.626z"/>
	<path clip-path="url(#SVGID_2_)" d="M1237.705,315.091c0,9.388-6.503,13.479-12.639,13.479c-6.87,0-12.167-5.035-12.167-13.059
		c0-8.496,5.559-13.479,12.586-13.479C1232.775,302.032,1237.705,307.329,1237.705,315.091 M1217.566,315.354
		c0,5.559,3.199,9.754,7.71,9.754c4.405,0,7.709-4.143,7.709-9.859c0-4.301-2.15-9.755-7.604-9.755
		S1217.566,310.528,1217.566,315.354"/>
	<path clip-path="url(#SVGID_2_)" d="M1248.665,295.477c0.053,1.573-1.103,2.832-2.937,2.832c-1.625,0-2.779-1.259-2.779-2.832
		c0-1.626,1.206-2.885,2.884-2.885C1247.563,292.592,1248.665,293.851,1248.665,295.477 M1243.525,302.609h4.614v25.383h-4.614
		V302.609z"/>
	<path clip-path="url(#SVGID_2_)" d="M1255.797,309.479c0-2.622-0.052-4.772-0.209-6.87h4.09l0.263,4.195h0.104
		c1.259-2.412,4.196-4.772,8.392-4.772c3.514,0,8.968,2.098,8.968,10.804v15.156h-4.615V313.36c0-4.091-1.521-7.5-5.874-7.5
		c-3.041,0-5.401,2.15-6.188,4.721c-0.209,0.576-0.314,1.363-0.314,2.149v15.262h-4.615V309.479z"/>
	<path clip-path="url(#SVGID_2_)" d="M1284.902,309.479c0-2.622-0.052-4.772-0.209-6.87h4.09l0.263,4.195h0.104
		c1.259-2.412,4.196-4.772,8.392-4.772c3.514,0,8.968,2.098,8.968,10.804v15.156h-4.615V313.36c0-4.091-1.521-7.5-5.874-7.5
		c-3.041,0-5.401,2.15-6.188,4.721c-0.209,0.576-0.314,1.363-0.314,2.149v15.262h-4.615V309.479z"/>
	<path clip-path="url(#SVGID_2_)" d="M1336.979,315.091c0,9.388-6.503,13.479-12.639,13.479c-6.87,0-12.167-5.035-12.167-13.059
		c0-8.496,5.559-13.479,12.586-13.479C1332.049,302.032,1336.979,307.329,1336.979,315.091 M1316.84,315.354
		c0,5.559,3.199,9.754,7.71,9.754c4.405,0,7.709-4.143,7.709-9.859c0-4.301-2.15-9.755-7.604-9.755S1316.84,310.528,1316.84,315.354
		"/>
	<path clip-path="url(#SVGID_2_)" d="M1344.216,302.609l4.981,14.265c0.84,2.308,1.521,4.405,2.046,6.503h0.158
		c0.576-2.098,1.311-4.195,2.149-6.503l4.93-14.265h4.825l-9.964,25.383h-4.405l-9.65-25.383H1344.216z"/>
	<path clip-path="url(#SVGID_2_)" d="M1372.797,295.477c0.053,1.573-1.102,2.832-2.937,2.832c-1.626,0-2.779-1.259-2.779-2.832
		c0-1.626,1.206-2.885,2.884-2.885C1371.695,292.592,1372.797,293.851,1372.797,295.477 M1367.657,302.609h4.614v25.383h-4.614
		V302.609z"/>
	<path clip-path="url(#SVGID_2_)" d="M1402.899,315.091c0,9.388-6.503,13.479-12.639,13.479c-6.87,0-12.167-5.035-12.167-13.059
		c0-8.496,5.559-13.479,12.586-13.479C1397.97,302.032,1402.899,307.329,1402.899,315.091 M1382.761,315.354
		c0,5.559,3.199,9.754,7.71,9.754c4.405,0,7.709-4.143,7.709-9.859c0-4.301-2.15-9.755-7.605-9.755
		C1385.121,305.493,1382.761,310.528,1382.761,315.354"/>
	<path clip-path="url(#SVGID_2_)" d="M1408.72,310.528c0-2.989-0.052-5.56-0.209-7.919h4.038l0.157,4.98h0.21
		c1.153-3.407,3.933-5.558,7.027-5.558c0.524,0,0.892,0.053,1.311,0.157v4.353c-0.471-0.104-0.943-0.157-1.573-0.157
		c-3.251,0-5.559,2.465-6.188,5.927c-0.104,0.629-0.209,1.362-0.209,2.15v13.53h-4.563V310.528z"/>
	<path clip-path="url(#SVGID_2_)" d="M1421.988,325.265c0-1.94,1.311-3.304,3.146-3.304c1.834,0,3.094,1.363,3.094,3.304
		c0,1.889-1.206,3.305-3.146,3.305C1423.246,328.569,1421.988,327.153,1421.988,325.265"/>
	<path clip-path="url(#SVGID_2_)" d="M1452.037,327.048c-1.206,0.63-3.881,1.469-7.29,1.469c-7.656,0-12.639-5.192-12.639-12.954
		c0-7.813,5.349-13.478,13.636-13.478c2.727,0,5.139,0.682,6.396,1.311l-1.048,3.566c-1.102-0.629-2.832-1.206-5.349-1.206
		c-5.822,0-8.969,4.301-8.969,9.598c0,5.873,3.776,9.492,8.811,9.492c2.623,0,4.354-0.682,5.664-1.259L1452.037,327.048z"/>
	<path clip-path="url(#SVGID_2_)" d="M1480.094,315.091c0,9.388-6.503,13.479-12.639,13.479c-6.87,0-12.167-5.035-12.167-13.059
		c0-8.496,5.559-13.479,12.586-13.479C1475.164,302.032,1480.094,307.329,1480.094,315.091 M1459.955,315.354
		c0,5.559,3.199,9.754,7.71,9.754c4.405,0,7.709-4.143,7.709-9.859c0-4.301-2.15-9.755-7.604-9.755
		S1459.955,310.528,1459.955,315.354"/>
	<path clip-path="url(#SVGID_2_)" d="M1485.914,309.479c0-2.622-0.052-4.772-0.209-6.87h4.038l0.209,4.091h0.158
		c1.416-2.413,3.775-4.668,7.971-4.668c3.462,0,6.084,2.098,7.186,5.087h0.104c0.787-1.416,1.783-2.518,2.832-3.304
		c1.521-1.154,3.199-1.783,5.611-1.783c3.356,0,8.339,2.202,8.339,11.014v14.946h-4.511v-14.37c0-4.877-1.782-7.813-5.506-7.813
		c-2.622,0-4.668,1.941-5.454,4.195c-0.21,0.629-0.368,1.469-0.368,2.308v15.681h-4.51v-15.209c0-4.038-1.783-6.975-5.297-6.975
		c-2.884,0-4.981,2.308-5.716,4.614c-0.263,0.683-0.367,1.469-0.367,2.256v15.313h-4.511V309.479z"/>
	<path clip-path="url(#SVGID_2_)" d="M931.195,253.67l-3.997,12.105h-5.139l13.075-38.484h5.995l13.133,38.484h-5.31l-4.111-12.105
		H931.195z M943.813,249.788l-3.769-11.077c-0.856-2.513-1.427-4.797-1.998-7.024h-0.114c-0.571,2.285-1.199,4.625-1.941,6.967
		l-3.769,11.134H943.813z"/>
	<path clip-path="url(#SVGID_2_)" d="M959.576,245.62c0-2.855-0.057-5.196-0.229-7.48h4.454l0.285,4.568h0.114
		c1.37-2.627,4.568-5.196,9.136-5.196c3.826,0,9.764,2.284,9.764,11.762v16.502h-5.024v-15.931c0-4.454-1.656-8.165-6.395-8.165
		c-3.313,0-5.882,2.341-6.738,5.139c-0.229,0.628-0.343,1.485-0.343,2.341v16.616h-5.024V245.62z"/>
	<rect x="1003.546" y="227.291" clip-path="url(#SVGID_2_)" width="4.967" height="38.484"/>
	<polygon clip-path="url(#SVGID_2_)" points="1024.502,231.517 1012.797,231.517 1012.797,227.291 1041.288,227.291 
		1041.288,231.517 1029.525,231.517 1029.525,265.775 1024.502,265.775 	"/>
	<path clip-path="url(#SVGID_2_)" d="M1056.823,260.637c1.483,0.971,4.11,1.998,6.623,1.998c3.654,0,5.367-1.827,5.367-4.111
		c0-2.398-1.427-3.711-5.139-5.081c-4.968-1.771-7.309-4.512-7.309-7.823c0-4.454,3.597-8.108,9.535-8.108
		c2.798,0,5.253,0.799,6.795,1.713l-1.256,3.654c-1.085-0.685-3.084-1.598-5.653-1.598c-2.969,0-4.625,1.712-4.625,3.768
		c0,2.284,1.656,3.312,5.253,4.682c4.797,1.827,7.252,4.225,7.252,8.336c0,4.854-3.769,8.279-10.335,8.279
		c-3.027,0-5.824-0.742-7.766-1.884L1056.823,260.637z"/>
	<path clip-path="url(#SVGID_2_)" d="M1082.919,252.871c0.114,6.795,4.454,9.593,9.479,9.593c3.598,0,5.767-0.628,7.651-1.428
		l0.856,3.597c-1.771,0.8-4.797,1.713-9.193,1.713c-8.507,0-13.589-5.595-13.589-13.931c0-8.337,4.91-14.903,12.961-14.903
		c9.021,0,11.42,7.936,11.42,13.018c0,1.028-0.114,1.827-0.171,2.341H1082.919z M1097.65,249.274
		c0.058-3.197-1.313-8.165-6.966-8.165c-5.082,0-7.309,4.682-7.708,8.165H1097.65z"/>
	<path clip-path="url(#SVGID_2_)" d="M1108.729,246.762c0-3.255-0.057-6.053-0.229-8.622h4.397l0.172,5.424h0.229
		c1.256-3.711,4.282-6.052,7.651-6.052c0.57,0,0.971,0.057,1.426,0.171v4.74c-0.513-0.115-1.026-0.172-1.712-0.172
		c-3.54,0-6.052,2.684-6.737,6.452c-0.114,0.685-0.229,1.485-0.229,2.341v14.732h-4.968V246.762z"/>
	<path clip-path="url(#SVGID_2_)" d="M1130.771,238.14l5.425,15.531c0.913,2.512,1.655,4.796,2.226,7.08h0.172
		c0.629-2.284,1.428-4.568,2.342-7.08l5.367-15.531h5.253l-10.849,27.636h-4.797l-10.506-27.636H1130.771z"/>
	<path clip-path="url(#SVGID_2_)" d="M1161.893,230.375c0.058,1.712-1.199,3.083-3.197,3.083c-1.771,0-3.026-1.371-3.026-3.083
		c0-1.771,1.313-3.141,3.142-3.141C1160.693,227.234,1161.893,228.604,1161.893,230.375 M1156.297,238.14h5.024v27.636h-5.024
		V238.14z"/>
	<path clip-path="url(#SVGID_2_)" d="M1189.358,264.748c-1.313,0.685-4.226,1.599-7.937,1.599c-8.337,0-13.761-5.653-13.761-14.103
		c0-8.508,5.824-14.675,14.845-14.675c2.97,0,5.597,0.742,6.967,1.428l-1.143,3.882c-1.199-0.685-3.083-1.313-5.824-1.313
		c-6.337,0-9.763,4.682-9.763,10.449c0,6.395,4.11,10.335,9.592,10.335c2.855,0,4.739-0.742,6.167-1.371L1189.358,264.748z"/>
	<path clip-path="url(#SVGID_2_)" d="M1197.697,252.871c0.114,6.795,4.454,9.593,9.479,9.593c3.598,0,5.767-0.628,7.65-1.428
		l0.857,3.597c-1.771,0.8-4.797,1.713-9.193,1.713c-8.507,0-13.589-5.595-13.589-13.931c0-8.337,4.91-14.903,12.961-14.903
		c9.021,0,11.42,7.936,11.42,13.018c0,1.028-0.114,1.827-0.171,2.341H1197.697z M1212.429,249.274
		c0.058-3.197-1.313-8.165-6.966-8.165c-5.082,0-7.309,4.682-7.708,8.165H1212.429z"/>
	<path clip-path="url(#SVGID_2_)" d="M1222.823,260.637c1.483,0.971,4.11,1.998,6.623,1.998c3.654,0,5.367-1.827,5.367-4.111
		c0-2.398-1.427-3.711-5.139-5.081c-4.968-1.771-7.309-4.512-7.309-7.823c0-4.454,3.597-8.108,9.535-8.108
		c2.798,0,5.253,0.799,6.795,1.713l-1.256,3.654c-1.085-0.685-3.084-1.598-5.653-1.598c-2.969,0-4.625,1.712-4.625,3.768
		c0,2.284,1.656,3.312,5.253,4.682c4.797,1.827,7.252,4.225,7.252,8.336c0,4.854-3.769,8.279-10.335,8.279
		c-3.027,0-5.824-0.742-7.766-1.884L1222.823,260.637z"/>
	<path clip-path="url(#SVGID_2_)" d="M1282.493,265.775c-1.084-1.085-2.112-2.17-3.597-3.769c-3.312,3.084-7.023,4.397-11.248,4.397
		c-7.48,0-11.819-5.025-11.819-10.792c0-5.253,3.14-8.85,7.536-11.248v-0.171c-1.998-2.513-3.197-5.311-3.197-8.051
		c0-4.682,3.369-9.478,9.764-9.478c4.797,0,8.508,3.197,8.508,8.165c0,4.053-2.341,7.251-8.45,10.277v0.171
		c3.255,3.769,6.909,7.994,9.364,10.735c1.77-2.683,2.969-6.395,3.711-11.248h4.568c-1.028,6.052-2.684,10.848-5.539,14.217
		c2.056,2.17,4.054,4.34,6.338,6.795H1282.493z M1276.441,259.151c-2.284-2.512-6.566-7.194-10.85-12.104
		c-2.055,1.314-4.967,3.769-4.967,7.823c0,4.397,3.255,7.765,7.88,7.765C1271.816,262.635,1274.614,261.15,1276.441,259.151
		 M1264.736,235.685c0,2.741,1.256,4.854,2.912,6.909c3.882-2.227,6.395-4.283,6.395-7.537c0-2.341-1.313-4.968-4.453-4.968
		C1266.392,230.089,1264.736,232.716,1264.736,235.685"/>
	<path clip-path="url(#SVGID_2_)" d="M1324.579,264.748c-1.313,0.685-4.226,1.599-7.937,1.599c-8.337,0-13.761-5.653-13.761-14.103
		c0-8.508,5.824-14.675,14.845-14.675c2.97,0,5.597,0.742,6.967,1.428l-1.143,3.882c-1.199-0.685-3.083-1.313-5.824-1.313
		c-6.337,0-9.763,4.682-9.763,10.449c0,6.395,4.11,10.335,9.592,10.335c2.855,0,4.739-0.742,6.167-1.371L1324.579,264.748z"/>
	<path clip-path="url(#SVGID_2_)" d="M1355.13,251.729c0,10.221-7.081,14.675-13.761,14.675c-7.48,0-13.247-5.482-13.247-14.218
		c0-9.25,6.052-14.674,13.703-14.674C1349.762,237.512,1355.13,243.279,1355.13,251.729 M1333.204,252.015
		c0,6.052,3.481,10.62,8.393,10.62c4.796,0,8.394-4.511,8.394-10.734c0-4.682-2.341-10.62-8.279-10.62
		C1335.773,241.281,1333.204,246.762,1333.204,252.015"/>
	<path clip-path="url(#SVGID_2_)" d="M1361.47,245.62c0-2.855-0.057-5.196-0.229-7.48h4.455l0.285,4.568h0.114
		c1.37-2.627,4.568-5.196,9.136-5.196c3.826,0,9.764,2.284,9.764,11.762v16.502h-5.024v-15.931c0-4.454-1.655-8.165-6.396-8.165
		c-3.312,0-5.881,2.341-6.737,5.139c-0.229,0.628-0.343,1.485-0.343,2.341v16.616h-5.024V245.62z"/>
	<path clip-path="url(#SVGID_2_)" d="M1392.478,260.637c1.483,0.971,4.11,1.998,6.623,1.998c3.654,0,5.367-1.827,5.367-4.111
		c0-2.398-1.427-3.711-5.139-5.081c-4.968-1.771-7.309-4.512-7.309-7.823c0-4.454,3.597-8.108,9.535-8.108
		c2.798,0,5.253,0.799,6.795,1.713l-1.256,3.654c-1.085-0.685-3.084-1.598-5.653-1.598c-2.969,0-4.625,1.712-4.625,3.768
		c0,2.284,1.656,3.312,5.253,4.682c4.797,1.827,7.252,4.225,7.252,8.336c0,4.854-3.769,8.279-10.335,8.279
		c-3.027,0-5.824-0.742-7.766-1.884L1392.478,260.637z"/>
	<path clip-path="url(#SVGID_2_)" d="M1438.9,258.238c0,2.855,0.058,5.367,0.229,7.537h-4.455l-0.284-4.511h-0.114
		c-1.313,2.227-4.227,5.139-9.136,5.139c-4.341,0-9.535-2.398-9.535-12.104v-16.16h5.024v15.303c0,5.253,1.599,8.793,6.168,8.793
		c3.367,0,5.709-2.341,6.622-4.568c0.285-0.742,0.457-1.656,0.457-2.569v-16.959h5.024V258.238z"/>
	<rect x="1447.239" y="225.235" clip-path="url(#SVGID_2_)" width="5.023" height="40.54"/>
	<path clip-path="url(#SVGID_2_)" d="M1466.769,230.203v7.937h7.194v3.825h-7.194v14.903c0,3.426,0.971,5.367,3.769,5.367
		c1.313,0,2.284-0.171,2.912-0.343l0.229,3.769c-0.971,0.4-2.514,0.685-4.454,0.685c-2.341,0-4.227-0.742-5.424-2.112
		c-1.428-1.485-1.941-3.94-1.941-7.195v-15.074h-4.283v-3.825h4.283v-6.624L1466.769,230.203z"/>
	<path clip-path="url(#SVGID_2_)" d="M1485.213,230.375c0.059,1.712-1.199,3.083-3.197,3.083c-1.771,0-3.026-1.371-3.026-3.083
		c0-1.771,1.313-3.141,3.141-3.141C1484.014,227.234,1485.213,228.604,1485.213,230.375 M1479.617,238.14h5.023v27.636h-5.023
		V238.14z"/>
	<path clip-path="url(#SVGID_2_)" d="M1492.979,245.62c0-2.855-0.057-5.196-0.229-7.48h4.455l0.285,4.568h0.114
		c1.37-2.627,4.568-5.196,9.136-5.196c3.826,0,9.764,2.284,9.764,11.762v16.502h-5.024v-15.931c0-4.454-1.655-8.165-6.396-8.165
		c-3.312,0-5.881,2.341-6.737,5.139c-0.229,0.628-0.343,1.485-0.343,2.341v16.616h-5.024V245.62z"/>
	<path clip-path="url(#SVGID_2_)" d="M1548.482,238.14c-0.114,1.999-0.229,4.226-0.229,7.594v16.045
		c0,6.338-1.256,10.221-3.94,12.619c-2.684,2.512-6.565,3.312-10.049,3.312c-3.312,0-6.966-0.8-9.192-2.285l1.256-3.825
		c1.827,1.142,4.682,2.17,8.107,2.17c5.14,0,8.908-2.684,8.908-9.65v-3.083h-0.114c-1.542,2.569-4.511,4.625-8.794,4.625
		c-6.852,0-11.762-5.824-11.762-13.475c0-9.365,6.109-14.675,12.447-14.675c4.796,0,7.423,2.513,8.622,4.797h0.114l0.229-4.169
		H1548.482z M1543.286,249.045c0-0.856-0.057-1.599-0.285-2.284c-0.914-2.912-3.369-5.31-7.024-5.31
		c-4.795,0-8.221,4.054-8.221,10.449c0,5.424,2.74,9.935,8.165,9.935c3.083,0,5.881-1.941,6.966-5.139
		c0.285-0.856,0.399-1.827,0.399-2.683V249.045z"/>
	<path clip-path="url(#SVGID_2_)" d="M1569.212,265.775v-23.81h-3.882v-3.826h3.882v-1.484c0-7.309,4.283-12.048,12.048-12.048
		c2.569,0,5.596,0.799,7.023,1.827l-1.428,3.826c-1.199-0.857-3.369-1.599-5.824-1.599c-5.31,0-6.852,3.712-6.852,8.108v1.37h16.045
		v27.636h-4.968v-23.81h-11.077v23.81H1569.212z"/>
	<path clip-path="url(#SVGID_2_)" d="M1598.563,246.762c0-3.255-0.057-6.053-0.229-8.622h4.397l0.172,5.424h0.229
		c1.256-3.711,4.282-6.052,7.651-6.052c0.57,0,0.971,0.057,1.426,0.171v4.74c-0.513-0.115-1.026-0.172-1.712-0.172
		c-3.54,0-6.052,2.684-6.737,6.452c-0.114,0.685-0.229,1.485-0.229,2.341v14.732h-4.968V246.762z"/>
	<path clip-path="url(#SVGID_2_)" d="M1617.465,245.62c0-2.855-0.057-5.196-0.229-7.48h4.396l0.229,4.454h0.172
		c1.541-2.627,4.11-5.082,8.679-5.082c3.769,0,6.623,2.284,7.822,5.539h0.114c0.856-1.542,1.941-2.741,3.083-3.598
		c1.656-1.256,3.483-1.941,6.11-1.941c3.654,0,9.078,2.398,9.078,11.991v16.273h-4.91v-15.645c0-5.31-1.941-8.508-5.995-8.508
		c-2.855,0-5.082,2.113-5.938,4.568c-0.229,0.685-0.399,1.599-0.399,2.512v17.073h-4.911v-16.559c0-4.396-1.941-7.594-5.767-7.594
		c-3.141,0-5.425,2.513-6.224,5.025c-0.287,0.742-0.399,1.598-0.399,2.455v16.673h-4.911V245.62z"/>
</g>
</svg>
